# xmcd CD database file generated by Grip 3.2.0
# 
# Track frame offsets:
#       150
#       25597
#       54609
#       81491
#       110264
#       138550
#       167137
#       193901
#       218760
#       248667
#       280561
#       308131
# 
# Disc length: 4470 seconds
# 
# Revision: 4
# Processed by: cddbd v1.5.2PL0 Copyright (c) Steve Scherf et al.
# Submitted via: Grip 3.2.0
# 
DISCID=a511740c
DTITLE=Orson Scott Card (read by Stefan Rudnicki, Harlan Ellison, and cast) /
DTITLE=Ender's Game [CD2]
DYEAR=2004
DGENRE=Speech
TTITLE0=02-13
TTITLE1=02-14
TTITLE2=02-15
TTITLE3=02-16
TTITLE4=02-17
TTITLE5=02-18
TTITLE6=02-19
TTITLE7=02-20
TTITLE8=02-21
TTITLE9=02-22
TTITLE10=02-23
TTITLE11=02-24
EXTD=YEAR: 2004
EXTT0=
EXTT1=
EXTT2=
EXTT3=
EXTT4=
EXTT5=
EXTT6=
EXTT7=
EXTT8=
EXTT9=
EXTT10=
EXTT11=
PLAYORDER=
